<?xml version="1.0" encoding="utf-8"?>
<!-- Generator: Adobe Illustrator 25.2.1, SVG Export Plug-In . SVG Version: 6.00 Build 0)  -->
<svg version="1.1" id="Layer_1" xmlns="http://www.w3.org/2000/svg" xmlns:xlink="http://www.w3.org/1999/xlink" x="0px" y="0px"
	 viewBox="0 0 135.97 68.83" style="enable-background:new 0 0 135.97 68.83;" xml:space="preserve">
<style type="text/css">
	.st0{fill-rule:evenodd;clip-rule:evenodd;fill:#6D6E71;}
	.st1{fill-rule:evenodd;clip-rule:evenodd;fill:#830C2C;}
</style>
<g>
	<path class="st0" d="M83.87,51.97c0,1.56-0.15,2.92-0.44,4.08c-0.29,1.16-0.77,2.12-1.44,2.89c-0.64,0.73-1.38,1.27-2.23,1.6
		c-0.85,0.34-1.84,0.51-2.96,0.51c-1.16,0-2.16-0.18-3.02-0.53c-0.86-0.36-1.58-0.88-2.16-1.58c-0.67-0.79-1.15-1.74-1.44-2.86
		c-0.29-1.11-0.44-2.49-0.44-4.11V39.11h2.45v13.01c0,1.16,0.07,2.08,0.2,2.75c0.14,0.67,0.37,1.28,0.69,1.83
		c0.36,0.63,0.86,1.1,1.48,1.41c0.62,0.32,1.37,0.48,2.25,0.48s1.63-0.16,2.25-0.47c0.62-0.32,1.11-0.79,1.49-1.42
		c0.32-0.55,0.55-1.18,0.69-1.88c0.13-0.71,0.2-1.58,0.2-2.63V39.11h2.45v12.86H83.87z M100.3,41.66h-9.31v6.06h7.99v2.54h-7.99
		v10.35h-2.45V39.12h11.76V41.66L100.3,41.66z M118.31,60.6h-3.18l-6.16-8.54h-3.44v8.54h-2.45V39.11h5.16
		c1.11,0,2.04,0.09,2.78,0.25c0.74,0.17,1.41,0.47,2,0.9c0.67,0.49,1.19,1.11,1.57,1.86c0.38,0.74,0.56,1.69,0.56,2.84
		c0,1.55-0.33,2.84-1,3.89c-0.67,1.04-1.59,1.83-2.76,2.36L118.31,60.6L118.31,60.6z M112.59,45.16c0-0.62-0.09-1.16-0.28-1.64
		c-0.19-0.48-0.49-0.88-0.92-1.21c-0.36-0.28-0.78-0.47-1.26-0.58c-0.49-0.12-1.06-0.17-1.72-0.17h-2.88v8.11H108
		c0.78,0,1.45-0.08,2.03-0.24s1.06-0.46,1.47-0.89c0.37-0.4,0.64-0.87,0.82-1.39C112.5,46.64,112.59,45.97,112.59,45.16
		L112.59,45.16z M127.44,55.02c0,1.88-0.49,3.34-1.48,4.36c-0.99,1.02-2.31,1.53-3.96,1.53c-0.4,0-0.92-0.04-1.58-0.12
		c-0.66-0.08-1.21-0.18-1.66-0.29v-2.67h0.14c0.34,0.13,0.76,0.28,1.25,0.42c0.49,0.14,1,0.22,1.52,0.22c0.76,0,1.36-0.1,1.81-0.3
		s0.78-0.49,0.99-0.87c0.22-0.38,0.36-0.86,0.43-1.41c0.06-0.56,0.09-1.21,0.09-1.94V41.41h-3.89v-2.28h6.34L127.44,55.02
		L127.44,55.02z"/>
	<path class="st1" d="M20.77,35.75c-1.86,0-3.58-0.29-5.16-0.87c-1.57-0.57-2.93-1.43-4.06-2.57c-1.13-1.15-2.01-2.57-2.64-4.27
		c-0.62-1.71-0.93-3.68-0.93-5.92c0-2.08,0.3-3.97,0.89-5.66c0.6-1.69,1.46-3.15,2.59-4.36c1.09-1.16,2.44-2.07,4.05-2.7
		c1.61-0.64,3.37-0.95,5.27-0.95c1.06,0,2.01,0.06,2.86,0.18c0.85,0.13,1.63,0.29,2.35,0.49c0.75,0.22,1.43,0.48,2.04,0.75
		s1.15,0.53,1.61,0.76V17H28.9c-0.31-0.28-0.7-0.62-1.18-1.01c-0.48-0.39-1.02-0.77-1.63-1.15c-0.61-0.37-1.29-0.69-2.01-0.95
		c-0.72-0.26-1.48-0.39-2.3-0.39c-0.91,0-1.77,0.14-2.59,0.44s-1.57,0.8-2.27,1.49c-0.66,0.67-1.2,1.56-1.6,2.66
		c-0.41,1.11-0.62,2.45-0.62,4.02c0,1.65,0.22,3.02,0.66,4.13c0.45,1.1,1.01,1.98,1.68,2.61c0.68,0.65,1.45,1.11,2.29,1.38
		c0.85,0.28,1.67,0.41,2.5,0.41c0.79,0,1.56-0.12,2.33-0.37s1.48-0.58,2.13-1.01c0.55-0.34,1.07-0.71,1.53-1.09
		c0.47-0.39,0.86-0.72,1.16-1.01h0.67v6.28c-0.63,0.29-1.23,0.57-1.8,0.83s-1.17,0.48-1.8,0.67c-0.82,0.25-1.59,0.43-2.3,0.56
		C23.02,35.68,22.03,35.75,20.77,35.75L20.77,35.75z M57.6,22.11c0,4.19-1.14,7.51-3.44,9.98c-2.29,2.47-5.45,3.7-9.5,3.7
		c-4.03,0-7.19-1.23-9.48-3.7c-2.29-2.46-3.43-5.79-3.43-9.98c0-4.22,1.14-7.56,3.43-10.01c2.29-2.46,5.45-3.68,9.48-3.68
		c4.02,0,7.18,1.22,9.48,3.68C56.45,14.55,57.6,17.89,57.6,22.11L57.6,22.11z M49.03,28.76c0.63-0.8,1.09-1.75,1.4-2.83
		c0.3-1.09,0.45-2.37,0.45-3.84c0-1.57-0.17-2.92-0.52-4.02c-0.34-1.1-0.8-2-1.36-2.68c-0.57-0.7-1.23-1.22-1.97-1.54
		c-0.75-0.32-1.53-0.47-2.34-0.47c-0.82,0-1.59,0.15-2.31,0.46c-0.73,0.31-1.39,0.81-1.99,1.52c-0.57,0.66-1.02,1.57-1.37,2.73
		c-0.36,1.16-0.53,2.5-0.53,4.03c0,1.57,0.17,2.9,0.51,4c0.35,1.1,0.79,1.99,1.36,2.69c0.56,0.69,1.22,1.2,1.97,1.54
		c0.75,0.32,1.54,0.49,2.37,0.49s1.62-0.17,2.37-0.51C47.81,29.98,48.47,29.47,49.03,28.76L49.03,28.76z M82.05,17.26
		c0,1.17-0.2,2.32-0.59,3.45c-0.4,1.12-0.95,2.07-1.68,2.83c-1,1.03-2.11,1.81-3.34,2.34c-1.23,0.53-2.76,0.8-4.59,0.8h-4.02v8.56
		h-6.47V8.97H72c1.6,0,2.94,0.14,4.03,0.43s2.06,0.72,2.9,1.3c1.01,0.69,1.78,1.58,2.31,2.66C81.79,14.44,82.05,15.74,82.05,17.26
		L82.05,17.26z M75.37,17.42c0-0.74-0.19-1.38-0.57-1.91c-0.39-0.53-0.83-0.91-1.33-1.12c-0.67-0.28-1.33-0.44-1.97-0.47
		c-0.64-0.02-1.49-0.04-2.56-0.04h-1.11v7.87h1.85c1.1,0,2.01-0.07,2.72-0.21c0.71-0.14,1.31-0.43,1.79-0.85
		c0.41-0.38,0.72-0.83,0.9-1.35C75.28,18.81,75.37,18.17,75.37,17.42L75.37,17.42z M106.14,17.26c0,1.17-0.2,2.32-0.59,3.45
		c-0.4,1.12-0.95,2.07-1.68,2.83c-1,1.03-2.12,1.81-3.34,2.34c-1.23,0.53-2.76,0.8-4.59,0.8h-4.02v8.56h-6.47V8.97h10.64
		c1.6,0,2.94,0.14,4.03,0.43s2.06,0.72,2.9,1.3c1.01,0.69,1.78,1.58,2.31,2.66C105.88,14.44,106.14,15.74,106.14,17.26L106.14,17.26
		z M99.46,17.42c0-0.74-0.19-1.38-0.57-1.91c-0.39-0.53-0.83-0.91-1.33-1.12c-0.67-0.28-1.33-0.44-1.97-0.47
		c-0.64-0.02-1.49-0.04-2.56-0.04h-1.11v7.87h1.85c1.1,0,2.01-0.07,2.72-0.21c0.71-0.14,1.31-0.43,1.79-0.85
		c0.41-0.38,0.72-0.83,0.9-1.35C99.37,18.81,99.46,18.17,99.46,17.42L99.46,17.42z M127.68,35.24h-18.13V8.97h18.13v5.08h-11.7v4.53
		h10.86v5.08h-10.86v6.49h11.7V35.24L127.68,35.24z"/>
</g>
</svg>
